<?xml version="1.0" encoding="utf-8"?>
<!-- Generator: Adobe Illustrator 27.2.0, SVG Export Plug-In . SVG Version: 6.00 Build 0)  -->
<svg version="1.1" id="Layer_1" xmlns="http://www.w3.org/2000/svg" xmlns:xlink="http://www.w3.org/1999/xlink" x="0px" y="0px"
	 viewBox="0 0 200 200" style="enable-background:new 0 0 200 200;" xml:space="preserve">
<style type="text/css">
	.st0{fill:none;}
</style>
<path id="SVGID_x5F_1_x5F_" class="st0" d="M168.1,100c0,37.6-30.5,68-68.1,68s-68.1-30.4-68.1-68S62.4,32,100,32
	S168.1,62.4,168.1,100z"/>
<text><textPath  xlink:href="#SVGID_x5F_1_x5F_" startOffset="89.9833%">
<tspan  style="fill:#FFFFFF; font-family:'MyriadPro-Regular'; font-size:31px;">THAKUR </tspan></textPath>
</text>
<path id="SVGID_x5F_00000174581908362334306670000015648577155424639421_x5F_" class="st0" d="M100,168.1c-37.6,0-68-30.5-68-68.1
	s30.4-68.1,68-68.1s68,30.5,68,68.1S137.6,168.1,100,168.1z"/>
<text><textPath  xlink:href="#SVGID_x5F_00000174581908362334306670000015648577155424639421_x5F_" startOffset="89.9833%">
<tspan  style="fill:#FFFFFF; font-family:'MyriadPro-Regular'; font-size:31px;">THAKUR </tspan></textPath>
</text>
<path id="SVGID_x5F_00000044899963544751001120000015848641038060935348_x5F_" class="st0" d="M31.9,101.1
	c-0.6-37.6,29.4-68.5,67-69.1s68.5,29.4,69.1,66.9s-29.4,68.5-67,69.1C63.5,168.6,32.5,138.6,31.9,101.1z"/>
<text><textPath  xlink:href="#SVGID_x5F_00000044899963544751001120000015848641038060935348_x5F_" startOffset="89.9833%">
<tspan  style="fill:#FFFFFF; font-family:'MyriadPro-Regular'; font-size:31px;">THAKUR </tspan></textPath>
</text>
<path id="SVGID_x5F_00000158751781001482245100000008811781192022117277_x5F_" class="st0" d="M100,31.9c37.6,0,68,30.5,68,68.1
	c0,37.6-30.4,68.1-68,68.1S32,137.6,32,100C32,62.4,62.4,31.9,100,31.9z"/>
<text><textPath  xlink:href="#SVGID_x5F_00000158751781001482245100000008811781192022117277_x5F_" startOffset="89.9833%">
<tspan  style="fill:#FFFFFF; font-family:'MyriadPro-Regular'; font-size:31px;">THAKUR </tspan></textPath>
</text>
</svg>
