<?xml version="1.0" encoding="UTF-8"?>
<svg id="Layer_1" data-name="Layer 1" xmlns="http://www.w3.org/2000/svg" viewBox="0 0 184.54 185.75">
  <defs>
    <style>
      .cls-1 {
        font-family: MyriadPro-Regular, 'Myriad Pro';
        font-size: 29px;
      }
    </style>
  </defs>
  <text class="cls-1" transform="translate(60.37 31.75) rotate(-21.72)"><tspan x="0" y="0">T</tspan></text>
  <text class="cls-1" transform="translate(72.71 26.44) rotate(-8.54)"><tspan x="0" y="0">H</tspan></text>
  <text class="cls-1" transform="translate(90.34 23.73) rotate(5.75)"><tspan x="0" y="0">A</tspan></text>
  <text class="cls-1" transform="translate(106.96 25.39) rotate(18.94)"><tspan x="0" y="0">K</tspan></text>
  <text class="cls-1" transform="translate(120.98 29.89) rotate(32.57)"><tspan x="0" y="0">U</tspan></text>
  <text class="cls-1" transform="translate(135.87 39.48) rotate(46.04)"><tspan x="0" y="0">R</tspan></text>
  <text class="cls-1" transform="translate(146 50.4) rotate(54.56)"><tspan x="0" y="0"> </tspan></text>
  <text class="cls-1" transform="translate(152.79 60.37) rotate(68.28)"><tspan x="0" y="0">T</tspan></text>
  <text class="cls-1" transform="translate(158.11 72.71) rotate(81.46)"><tspan x="0" y="0">H</tspan></text>
  <text class="cls-1" transform="translate(160.82 90.34) rotate(95.75)"><tspan x="0" y="0">A</tspan></text>
  <text class="cls-1" transform="translate(159.15 106.96) rotate(108.94)"><tspan x="0" y="0">K</tspan></text>
  <text class="cls-1" transform="translate(154.66 120.98) rotate(122.58)"><tspan x="0" y="0">U</tspan></text>
  <text class="cls-1" transform="translate(145.07 135.88) rotate(136.04)"><tspan x="0" y="0">R</tspan></text>
  <text class="cls-1" transform="translate(134.14 146) rotate(144.56)"><tspan x="0" y="0"> </tspan></text>
  <text class="cls-1" transform="translate(125.12 152.28) rotate(157.38)"><tspan x="0" y="0">T</tspan></text>
  <text class="cls-1" transform="translate(112.87 157.79) rotate(170.56)"><tspan x="0" y="0">H</tspan></text>
  <text class="cls-1" transform="translate(95.28 160.78) rotate(-175.15)"><tspan x="0" y="0">A</tspan></text>
  <text class="cls-1" transform="translate(78.64 159.38) rotate(-161.96)"><tspan x="0" y="0">K</tspan></text>
  <text class="cls-1" transform="translate(64.55 155.1) rotate(-148.33)"><tspan x="0" y="0">U</tspan></text>
  <text class="cls-1" transform="translate(49.51 145.75) rotate(-134.86)"><tspan x="0" y="0">R</tspan></text>
  <text class="cls-1" transform="translate(39.21 134.98) rotate(-126.35)"><tspan x="0" y="0"> </tspan></text>
  <text class="cls-1" transform="translate(31.75 124.17) rotate(-111.72)"><tspan x="0" y="0">T</tspan></text>
  <text class="cls-1" transform="translate(26.43 111.84) rotate(-98.54)"><tspan x="0" y="0">H</tspan></text>
  <text class="cls-1" transform="translate(23.73 94.2) rotate(-84.25)"><tspan x="0" y="0">A</tspan></text>
  <text class="cls-1" transform="translate(25.39 77.59) rotate(-71.06)"><tspan x="0" y="0">K</tspan></text>
  <text class="cls-1" transform="translate(29.89 63.56) rotate(-57.43)"><tspan x="0" y="0">U</tspan></text>
  <text class="cls-1" transform="translate(39.48 48.67) rotate(-43.96)"><tspan x="0" y="0">R</tspan></text>
  <text class="cls-1" transform="translate(50.4 38.55) rotate(-35.44)"><tspan x="0" y="0"> </tspan></text>
</svg>
